<svg version="1.1" viewBox="0.0 0.0 960.0 540.0" fill="none" stroke="none" stroke-linecap="square" stroke-miterlimit="10" xmlns:xlink="http://www.w3.org/1999/xlink" xmlns="http://www.w3.org/2000/svg"><clipPath id="g1066303189b_0_0.0"><path d="m0 0l960.0 0l0 540.0l-960.0 0l0 -540.0z" clip-rule="nonzero"/></clipPath><g clip-path="url(#g1066303189b_0_0.0)"><path fill="#000000" d="m0 0l960.0 0l0 540.0l-960.0 0z" fill-rule="evenodd"/><path fill="#000000" fill-opacity="0.0" d="m223.28346 376.7454l500.22052 0l0 66.26773l-500.22052 0z" fill-rule="evenodd"/><path fill="#9900ff" d="m351.49176 422.86542l-22.53125 -22.84375l0 22.84375l-2.359375 0l0 -25.9375l2.609375 0l22.53125 22.921875l0 -22.921875l2.328125 0l0 25.9375l-2.578125 0zm13.652374 -23.71875l0 8.921875l17.25 0l0 2.1875l-17.25 0l0 12.609375l-2.359375 0l0 -25.9375l20.53125 0l0 2.21875l-18.171875 0zm34.75128 -0.0625l0 23.78125l-2.34375 0l0 -23.78125l-11.796875 0l0 -2.15625l25.9375 0l0 2.15625l-11.796875 0zm62.549896 10.828125q0 3.28125 -1.109375 5.703125q-1.109375 2.421875 -3.0625 4.078125q1.703125 0.53125 3.328125 0.96875q1.640625 0.421875 3.171875 0.6875l-0.9375 2.359375q-1.828125 -0.46875 -3.84375 -1.140625q-2.0 -0.6875 -3.921875 -1.40625q-2.0625 1.140625 -4.625 1.6875q-2.546875 0.53125 -5.421875 0.53125q-3.484375 0 -6.515625 -0.796875q-3.015625 -0.796875 -5.25 -2.4375q-2.21875 -1.65625 -3.484375 -4.1875q-1.265625 -2.546875 -1.265625 -6.046875q0 -2.3125 0.578125 -4.203125q0.59375 -1.90625 1.640625 -3.40625q1.0625 -1.5 2.5625 -2.59375q1.5 -1.09375 3.34375 -1.8125q1.84375 -0.734375 3.953125 -1.078125q2.125 -0.359375 4.4375 -0.359375q3.46875 0 6.46875 0.796875q3.015625 0.78125 5.21875 2.4375q2.203125 1.65625 3.46875 4.203125q1.265625 2.53125 1.265625 6.015625zm-2.4375 0q0 -2.75 -0.90625 -4.859375q-0.890625 -2.125 -2.640625 -3.5625q-1.75 -1.4375 -4.375 -2.1875q-2.609375 -0.75 -6.0625 -0.75q-3.453125 0 -6.09375 0.765625q-2.625 0.75 -4.40625 2.203125q-1.765625 1.4375 -2.671875 3.5625q-0.90625 2.109375 -0.90625 4.828125q0 2.765625 0.90625 4.875q0.90625 2.109375 2.671875 3.5625q1.78125 1.4375 4.40625 2.1875q2.640625 0.75 6.09375 0.75q4.34375 0 7.34375 -1.15625q-1.15625 -0.46875 -2.125 -0.875q-0.953125 -0.40625 -1.671875 -0.734375q-0.828125 -0.359375 -1.5 -0.671875l0.921875 -1.90625q1.53125 0.765625 3.25 1.5q1.734375 0.734375 3.59375 1.40625q2.0625 -1.453125 3.109375 -3.6875q1.0625 -2.25 1.0625 -5.25zm35.29901 4.796875q0 1.953125 -0.828125 3.546875q-0.8125 1.59375 -2.453125 2.734375q-1.625 1.140625 -4.078125 1.765625q-2.453125 0.625 -5.71875 0.625q-3.265625 0 -5.71875 -0.625q-2.453125 -0.625 -4.09375 -1.765625q-1.640625 -1.140625 -2.46875 -2.734375q-0.8125 -1.59375 -0.8125 -3.546875l0 -17.78125l2.359375 0l0 17.96875q0 1.3125 0.6875 2.46875q0.6875 1.15625 2.046875 2.03125q1.359375 0.859375 3.359375 1.375q2.0 0.515625 4.640625 0.515625q2.625 0 4.625 -0.515625q2.0 -0.515625 3.359375 -1.375q1.359375 -0.875 2.046875 -2.03125q0.6875 -1.15625 0.6875 -2.46875l0 -17.96875l2.359375 0l0 17.78125l0 0zm31.866333 8.15625l-3.578125 -6.828125l-17.609344 0l-3.5625 6.828125l-2.578125 0l13.5624695 -25.9375l2.78125 0l13.5625 25.9375l-2.578125 0zm-12.375 -23.65625l-7.6562195 14.65625l15.3124695 0l-7.65625 -14.65625zm41.005188 1.546875q-0.734375 -0.359375 -1.703125 -0.75q-0.953125 -0.40625 -2.203125 -0.734375q-1.234375 -0.328125 -2.78125 -0.53125q-1.546875 -0.21875 -3.4375 -0.21875q-2.28125 0 -4.0625 0.265625q-1.78125 0.25 -3.015625 0.8125q-1.234375 0.5625 -1.890625 1.40625q-0.65625 0.84375 -0.65625 2.015625q0 0.984375 0.609375 1.71875q0.625 0.734375 1.671875 1.3125q1.046875 0.5625 2.453125 1.03125q1.40625 0.453125 2.984375 0.859375q1.578125 0.40625 3.25 0.828125q1.671875 0.40625 3.234375 0.890625q1.578125 0.484375 2.984375 1.078125q1.40625 0.59375 2.453125 1.390625q1.046875 0.78125 1.65625 1.8125q0.625 1.015625 0.625 2.359375q0 1.453125 -0.546875 2.546875q-0.546875 1.078125 -1.484375 1.859375q-0.9375 0.78125 -2.1875 1.296875q-1.25 0.515625 -2.6875 0.828125q-1.421875 0.296875 -2.9375 0.421875q-1.515625 0.125 -3.0 0.125q-3.375 0 -6.125 -0.5q-2.734375 -0.484375 -5.234375 -1.34375l0 -2.875q2.5625 1.515625 5.421875 2.09375q2.875 0.5625 6.015625 0.5625q2.234375 0 4.109375 -0.265625q1.890625 -0.265625 3.265625 -0.84375q1.390625 -0.578125 2.15625 -1.5q0.765625 -0.921875 0.765625 -2.265625q0 -1.078125 -0.625 -1.875q-0.609375 -0.8125 -1.65625 -1.421875q-1.046875 -0.625 -2.453125 -1.09375q-1.40625 -0.46875 -2.984375 -0.875q-1.5625 -0.40625 -3.234375 -0.796875q-1.65625 -0.390625 -3.234375 -0.84375q-1.5625 -0.453125 -2.96875 -1.015625q-1.40625 -0.5625 -2.453125 -1.328125q-1.046875 -0.765625 -1.65625 -1.765625q-0.609375 -1.0 -0.609375 -2.328125q0 -1.296875 0.484375 -2.296875q0.484375 -1.015625 1.34375 -1.75q0.859375 -0.75 2.015625 -1.25q1.15625 -0.5 2.46875 -0.78125q1.3125 -0.296875 2.71875 -0.421875q1.421875 -0.140625 2.796875 -0.140625q1.515625 0 2.859375 0.140625q1.34375 0.125 2.59375 0.34375q1.265625 0.21875 2.453125 0.5q1.203125 0.28125 2.4375 0.59375l0 2.71875zm33.22357 22.109375l-3.578125 -6.828125l-17.609375 0l-3.5625 6.828125l-2.578125 0l13.5625 -25.9375l2.78125 0l13.5625 25.9375l-2.578125 0zm-12.375 -23.65625l-7.65625 14.65625l15.3125 0l-7.65625 -14.65625zm22.411499 12.5625l0 11.09375l-2.359375 0l0 -25.9375l12.90625 0q2.96875 0 5.078125 0.46875q2.125 0.453125 3.46875 1.390625q1.34375 0.9375 1.96875 2.34375q0.625 1.390625 0.625 3.25q0 2.90625 -1.53125 4.65625q-1.53125 1.75 -4.921875 2.390625l8.84375 11.4375l-2.953125 0l-8.359375 -11.171875q-0.53125 0.03125 -1.078125 0.0625q-0.546875 0.015625 -1.140625 0.015625l-10.546875 0zm19.25 -7.390625q0 -1.65625 -0.59375 -2.6875q-0.578125 -1.03125 -1.90625 -1.59375q-1.3125 -0.5625 -3.453125 -0.75q-2.140625 -0.203125 -5.25 -0.203125l-8.046875 0l0 10.40625l7.96875 0q3.109375 0 5.265625 -0.171875q2.15625 -0.1875 3.484375 -0.734375q1.34375 -0.5625 1.9375 -1.5625q0.59375 -1.015625 0.59375 -2.703125z" fill-rule="nonzero"/><path fill="#000000" fill-opacity="0.0" d="m414.41733 305.58267l133.95273 -232.31496" fill-rule="evenodd"/><path stroke="#ffff00" stroke-width="4.0" stroke-linejoin="round" stroke-linecap="butt" d="m414.41733 305.58267l133.95273 -232.31496" fill-rule="evenodd"/><path fill="#000000" fill-opacity="0.0" d="m591.44354 37.207348l-209.48029 291.9685" fill-rule="evenodd"/><path stroke="#9900ff" stroke-width="4.0" stroke-linejoin="round" stroke-linecap="butt" d="m591.44354 37.207348l-209.48029 291.9685" fill-rule="evenodd"/><path fill="#000000" fill-opacity="0.0" d="m552.5591 26.745407l-141.79529 320.0" fill-rule="evenodd"/><path stroke="#9900ff" stroke-width="4.0" stroke-linejoin="round" stroke-linecap="butt" d="m552.5591 26.745407l-141.79529 320.0" fill-rule="evenodd"/><path fill="#ffffff" d="m402.1196 152.87791l0 0c1.3406982 -2.744049 10.945557 -1.3074493 26.701538 3.9937744c15.756012 5.3012238 36.37256 14.032822 57.31421 24.273941l0 0c43.608734 21.32602 76.69736 43.246445 73.90555 48.960632l0 0c-2.79187 5.7141876 -40.407043 -6.941696 -84.01578 -28.267715l0 0c-43.608734 -21.32602 -76.69736 -43.246445 -73.90552 -48.960632zm5.172333 2.529419l0 0c-1.395935 2.8571014 30.508575 21.328918 71.26074 41.25798c40.752136 19.929062 74.91992 33.768616 76.31586 30.91153c1.395935 -2.8571014 -30.508545 -21.328934 -71.26074 -41.25798l0 0c-19.569855 -9.570282 -38.604523 -18.203537 -52.916504 -24.00058c-14.312012 -5.7970276 -22.729004 -8.282974 -23.399353 -6.9109497z" fill-rule="evenodd"/><path stroke="#ffffff" stroke-width="1.0" stroke-linejoin="round" stroke-linecap="butt" d="m402.1196 152.87791l0 0c1.3406982 -2.744049 10.945557 -1.3074493 26.701538 3.9937744c15.756012 5.3012238 36.37256 14.032822 57.31421 24.273941l0 0c43.608734 21.32602 76.69736 43.246445 73.90555 48.960632l0 0c-2.79187 5.7141876 -40.407043 -6.941696 -84.01578 -28.267715l0 0c-43.608734 -21.32602 -76.69736 -43.246445 -73.90552 -48.960632zm5.172333 2.529419l0 0c-1.395935 2.8571014 30.508575 21.328918 71.26074 41.25798c40.752136 19.929062 74.91992 33.768616 76.31586 30.91153c1.395935 -2.8571014 -30.508545 -21.328934 -71.26074 -41.25798l0 0c-19.569855 -9.570282 -38.604523 -18.203537 -52.916504 -24.00058c-14.312012 -5.7970276 -22.729004 -8.282974 -23.399353 -6.9109497z" fill-rule="evenodd"/><path fill="#ffffff" d="m317.4227 111.676636l0 0c1.3406982 -2.744049 18.79834 2.533516 48.53247 14.6717c29.7341 12.138176 69.30902 30.142677 110.01871 50.05271l0 0c84.77356 41.460495 151.23279 79.70314 148.44092 85.41731l0 0c-2.79187 5.714203 -73.77765 -23.2639 -158.55115 -64.724396l0 0c-84.77356 -41.460495 -151.23282 -79.70313 -148.44095 -85.41733zm2.8112183 1.3748932l0 0c-2.0331726 4.1613007 63.782562 40.52951 147.00351 81.23068c83.22095 40.701157 152.33301 70.322586 154.36615 66.16127l0 0c2.0332031 -4.161316 -63.78253 -40.52951 -147.00348 -81.23068l0 0c-39.96411 -19.54538 -78.67926 -37.496414 -107.62851 -49.904068c-28.94928 -12.407639 -45.761322 -18.255531 -46.73767 -16.257202z" fill-rule="evenodd"/><path stroke="#ffffff" stroke-width="1.0" stroke-linejoin="round" stroke-linecap="butt" d="m317.4227 111.676636l0 0c1.3406982 -2.744049 18.79834 2.533516 48.53247 14.6717c29.7341 12.138176 69.30902 30.142677 110.01871 50.05271l0 0c84.77356 41.460495 151.23279 79.70314 148.44092 85.41731l0 0c-2.79187 5.714203 -73.77765 -23.2639 -158.55115 -64.724396l0 0c-84.77356 -41.460495 -151.23282 -79.70313 -148.44095 -85.41733zm2.8112183 1.3748932l0 0c-2.0331726 4.1613007 63.782562 40.52951 147.00351 81.23068c83.22095 40.701157 152.33301 70.322586 154.36615 66.16127l0 0c2.0332031 -4.161316 -63.78253 -40.52951 -147.00348 -81.23068l0 0c-39.96411 -19.54538 -78.67926 -37.496414 -107.62851 -49.904068c-28.94928 -12.407639 -45.761322 -18.255531 -46.73767 -16.257202z" fill-rule="evenodd"/><path fill="#ffffff" d="m338.26385 121.86239c1.3406982 -2.744049 16.603271 1.4600449 42.430145 11.687416c25.826843 10.227386 60.102386 25.640274 95.28641 42.848022l0 0c73.266846 35.833282 130.39813 69.51416 127.60626 75.22835l0 0c-2.79187 5.7141876 -64.449646 -18.702164 -137.71652 -54.53543l0 0c-73.26688 -35.833282 -130.39816 -69.51416 -127.60629 -75.228355zm5.1722107 2.529625l0 0c-1.395935 2.8570938 54.5513 33.089294 124.96164 67.5255c70.41034 34.436203 128.62085 60.036133 130.01678 57.17903c1.395935 -2.8570862 -54.55133 -33.08928 -124.96167 -67.52548l0 0c-33.812225 -16.53685 -66.50589 -31.851364 -90.88876 -42.57451c-24.382874 -10.72316 -38.45764 -15.9765625 -39.12799 -14.604538z" fill-rule="evenodd"/><path stroke="#ffffff" stroke-width="1.0" stroke-linejoin="round" stroke-linecap="butt" d="m338.26385 121.86239c1.3406982 -2.744049 16.603271 1.4600449 42.430145 11.687416c25.826843 10.227386 60.102386 25.640274 95.28641 42.848022l0 0c73.266846 35.833282 130.39813 69.51416 127.60626 75.22835l0 0c-2.79187 5.7141876 -64.449646 -18.702164 -137.71652 -54.53543l0 0c-73.26688 -35.833282 -130.39816 -69.51416 -127.60629 -75.228355zm5.1722107 2.529625l0 0c-1.395935 2.8570938 54.5513 33.089294 124.96164 67.5255c70.41034 34.436203 128.62085 60.036133 130.01678 57.17903c1.395935 -2.8570862 -54.55133 -33.08928 -124.96167 -67.52548l0 0c-33.812225 -16.53685 -66.50589 -31.851364 -90.88876 -42.57451c-24.382874 -10.72316 -38.45764 -15.9765625 -39.12799 -14.604538z" fill-rule="evenodd"/><path fill="#ffffff" d="m451.74802 190.0l0 0c0 -16.47287 12.648865 -29.826767 28.251984 -29.826767l0 0c7.4928894 0 14.678894 3.142456 19.977173 8.736053c5.2982483 5.5936127 8.274811 13.1801605 8.274811 21.090714l0 0c0 16.47287 -12.648865 29.826767 -28.251984 29.826767l0 0c-15.603119 0 -28.251984 -13.353897 -28.251984 -29.826767z" fill-rule="evenodd"/><path stroke="#ffffff" stroke-width="1.0" stroke-linejoin="round" stroke-linecap="butt" d="m451.74802 190.0l0 0c0 -16.47287 12.648865 -29.826767 28.251984 -29.826767l0 0c7.4928894 0 14.678894 3.142456 19.977173 8.736053c5.2982483 5.5936127 8.274811 13.1801605 8.274811 21.090714l0 0c0 16.47287 -12.648865 29.826767 -28.251984 29.826767l0 0c-15.603119 0 -28.251984 -13.353897 -28.251984 -29.826767z" fill-rule="evenodd"/><path fill="#000000" fill-opacity="0.0" d="m226.77428 379.8609l500.22046 0l0 66.2677l-500.22046 0z" fill-rule="evenodd"/><path fill="#ffffff" d="m354.98257 425.9809l-22.53125 -22.84375l0 22.84375l-2.359375 0l0 -25.9375l2.609375 0l22.53125 22.921875l0 -22.921875l2.328125 0l0 25.9375l-2.578125 0zm13.652374 -23.71875l0 8.921875l17.25 0l0 2.1875l-17.25 0l0 12.609375l-2.359375 0l0 -25.9375l20.53125 0l0 2.21875l-18.171875 0zm34.75128 -0.0625l0 23.78125l-2.34375 0l0 -23.78125l-11.796875 0l0 -2.15625l25.9375 0l0 2.15625l-11.796875 0zm62.549896 10.828125q0 3.28125 -1.109375 5.703125q-1.109375 2.421875 -3.0625 4.078125q1.703125 0.53125 3.328125 0.96875q1.640625 0.421875 3.171875 0.6875l-0.9375 2.359375q-1.828125 -0.46875 -3.84375 -1.140625q-2.0 -0.6875 -3.921875 -1.40625q-2.0625 1.140625 -4.625 1.6875q-2.546875 0.53125 -5.421875 0.53125q-3.484375 0 -6.515625 -0.796875q-3.015625 -0.796875 -5.25 -2.4375q-2.21875 -1.65625 -3.484375 -4.1875q-1.265625 -2.546875 -1.265625 -6.046875q0 -2.3125 0.578125 -4.203125q0.59375 -1.90625 1.640625 -3.40625q1.0625 -1.5 2.5625 -2.59375q1.5 -1.09375 3.34375 -1.8125q1.84375 -0.734375 3.953125 -1.078125q2.125 -0.359375 4.4375 -0.359375q3.46875 0 6.46875 0.796875q3.015625 0.78125 5.21875 2.4375q2.203125 1.65625 3.46875 4.203125q1.265625 2.53125 1.265625 6.015625zm-2.4375 0q0 -2.75 -0.90625 -4.859375q-0.890625 -2.125 -2.640625 -3.5625q-1.75 -1.4375 -4.375 -2.1875q-2.609375 -0.75 -6.0625 -0.75q-3.453125 0 -6.09375 0.765625q-2.625 0.75 -4.40625 2.203125q-1.765625 1.4375 -2.671875 3.5625q-0.90625 2.109375 -0.90625 4.828125q0 2.765625 0.90625 4.875q0.90625 2.109375 2.671875 3.5625q1.78125 1.4375 4.40625 2.1875q2.640625 0.75 6.09375 0.75q4.34375 0 7.34375 -1.15625q-1.15625 -0.46875 -2.125 -0.875q-0.953125 -0.40625 -1.671875 -0.734375q-0.828125 -0.359375 -1.5 -0.671875l0.921875 -1.90625q1.53125 0.765625 3.25 1.5q1.734375 0.734375 3.59375 1.40625q2.0625 -1.453125 3.109375 -3.6875q1.0625 -2.25 1.0625 -5.25zm35.29901 4.796875q0 1.953125 -0.828125 3.546875q-0.8125 1.59375 -2.453125 2.734375q-1.625 1.140625 -4.078125 1.765625q-2.453125 0.625 -5.71875 0.625q-3.265625 0 -5.71875 -0.625q-2.453125 -0.625 -4.09375 -1.765625q-1.640625 -1.140625 -2.46875 -2.734375q-0.8125 -1.59375 -0.8125 -3.546875l0 -17.78125l2.359375 0l0 17.96875q0 1.3125 0.6875 2.46875q0.6875 1.15625 2.046875 2.03125q1.359375 0.859375 3.359375 1.375q2.0 0.515625 4.640625 0.515625q2.625 0 4.625 -0.515625q2.0 -0.515625 3.359375 -1.375q1.359375 -0.875 2.046875 -2.03125q0.6875 -1.15625 0.6875 -2.46875l0 -17.96875l2.359375 0l0 17.78125l0 0zm31.866364 8.15625l-3.578125 -6.828125l-17.609375 0l-3.5625 6.828125l-2.578125 0l13.5625 -25.9375l2.78125 0l13.5625 25.9375l-2.578125 0zm-12.375 -23.65625l-7.65625 14.65625l15.3125 0l-7.65625 -14.65625zm41.005188 1.546875q-0.734375 -0.359375 -1.703125 -0.75q-0.953125 -0.40625 -2.203125 -0.734375q-1.234375 -0.328125 -2.78125 -0.53125q-1.546875 -0.21875 -3.4375 -0.21875q-2.28125 0 -4.0625 0.265625q-1.78125 0.25 -3.015625 0.8125q-1.234375 0.5625 -1.890625 1.40625q-0.65625 0.84375 -0.65625 2.015625q0 0.984375 0.609375 1.71875q0.625 0.734375 1.671875 1.3125q1.046875 0.5625 2.453125 1.03125q1.40625 0.453125 2.984375 0.859375q1.578125 0.40625 3.25 0.828125q1.671875 0.40625 3.234375 0.890625q1.578125 0.484375 2.984375 1.078125q1.40625 0.59375 2.453125 1.390625q1.046875 0.78125 1.65625 1.8125q0.625 1.015625 0.625 2.359375q0 1.453125 -0.546875 2.546875q-0.546875 1.078125 -1.484375 1.859375q-0.9375 0.78125 -2.1875 1.296875q-1.25 0.515625 -2.6875 0.828125q-1.421875 0.296875 -2.9375 0.421875q-1.515625 0.125 -3.0 0.125q-3.375 0 -6.125 -0.5q-2.734375 -0.484375 -5.234375 -1.34375l0 -2.875q2.5625 1.515625 5.421875 2.09375q2.875 0.5625 6.015625 0.5625q2.234375 0 4.109375 -0.265625q1.890625 -0.265625 3.265625 -0.84375q1.390625 -0.578125 2.15625 -1.5q0.765625 -0.921875 0.765625 -2.265625q0 -1.078125 -0.625 -1.875q-0.609375 -0.8125 -1.65625 -1.421875q-1.046875 -0.625 -2.453125 -1.09375q-1.40625 -0.46875 -2.984375 -0.875q-1.5625 -0.40625 -3.234375 -0.796875q-1.65625 -0.390625 -3.234375 -0.84375q-1.5625 -0.453125 -2.96875 -1.015625q-1.40625 -0.5625 -2.453125 -1.328125q-1.046875 -0.765625 -1.65625 -1.765625q-0.609375 -1.0 -0.609375 -2.328125q0 -1.296875 0.484375 -2.296875q0.484375 -1.015625 1.34375 -1.75q0.859375 -0.75 2.015625 -1.25q1.15625 -0.5 2.46875 -0.78125q1.3125 -0.296875 2.71875 -0.421875q1.421875 -0.140625 2.796875 -0.140625q1.515625 0 2.859375 0.140625q1.34375 0.125 2.59375 0.34375q1.265625 0.21875 2.453125 0.5q1.203125 0.28125 2.4375 0.59375l0 2.71875zm33.22357 22.109375l-3.578125 -6.828125l-17.609375 0l-3.5625 6.828125l-2.578125 0l13.5625 -25.9375l2.78125 0l13.5625 25.9375l-2.578125 0zm-12.375 -23.65625l-7.65625 14.65625l15.3125 0l-7.65625 -14.65625zm22.411499 12.5625l0 11.09375l-2.359375 0l0 -25.9375l12.90625 0q2.96875 0 5.078125 0.46875q2.125 0.453125 3.46875 1.390625q1.34375 0.9375 1.96875 2.34375q0.625 1.390625 0.625 3.25q0 2.90625 -1.53125 4.65625q-1.53125 1.75 -4.921875 2.390625l8.84375 11.4375l-2.953125 0l-8.359375 -11.171875q-0.53125 0.03125 -1.078125 0.0625q-0.546875 0.015625 -1.140625 0.015625l-10.546875 0zm19.25 -7.390625q0 -1.65625 -0.59375 -2.6875q-0.578125 -1.03125 -1.90625 -1.59375q-1.3125 -0.5625 -3.453125 -0.75q-2.140625 -0.203125 -5.25 -0.203125l-8.046875 0l0 10.40625l7.96875 0q3.109375 0 5.265625 -0.171875q2.15625 -0.1875 3.484375 -0.734375q1.34375 -0.5625 1.9375 -1.5625q0.59375 -1.015625 0.59375 -2.703125z" fill-rule="nonzero"/></g></svg>